<svg xmlns="http://www.w3.org/2000/svg" width="512" height="512" viewBox="0 0 512 512" style="overflow: visible;" data-bbox="159.27940678912296 144.81547814840957 193.87676616110184 214.26878932858807"><rect data-uid="o_f4b7na6h1_4" data-fl-background="" x="0" y="0" width="512" height="512" fill="#5210ce"></rect><path text="fSUSHI" fill="#f5f5f5" space="preserve" text-anchor="middle" offset="0.5" font-scale="contain" font-size="48" font-family="Baloo Bhai" transform="matrix(1.322542428970337, 0, 0, 1.322542428970337, 256.5682678222656, 327.7098388671875)" data-fl-textpath="" font-weight="400" font-style="normal" data-uid="o_f4b7na6h1_5" d="M-73.56200000000001-3.46L-73.56200000000001-23.33Q-73.56200000000001-25.78 -72.72200000000001-27.53Q-71.88200000000002-29.28 -70.44200000000002-30.41Q-69.00200000000001-31.54 -67.05200000000002-32.06Q-65.11200000000002-32.59 -62.902000000000015-32.59L-62.902000000000015-32.59Q-59.35200000000002-32.59 -57.67200000000001-31.66Q-55.99200000000002-30.72 -55.99200000000002-28.46L-55.99200000000002-28.46Q-55.99200000000002-27.5 -56.402000000000015-26.74Q-56.81200000000001-25.97 -57.292000000000016-25.58L-57.292000000000016-25.58Q-58.20200000000001-25.82 -59.182000000000016-25.99Q-60.17200000000001-26.16 -61.46200000000002-26.16L-61.46200000000002-26.16Q-63.53200000000002-26.16 -64.68200000000002-25.46Q-65.83200000000002-24.77 -65.83200000000002-23.04L-65.83200000000002-23.04L-65.83200000000002-21.5L-57.96200000000002-21.5Q-57.67200000000001-20.98 -57.41200000000002-20.18Q-57.14200000000001-19.39 -57.14200000000001-18.43L-57.14200000000001-18.43Q-57.14200000000001-16.75 -57.89200000000001-16.01Q-58.63200000000002-15.26 -59.88200000000002-15.26L-59.88200000000002-15.26L-65.40200000000002-15.26L-65.40200000000002-0.05Q-65.88200000000002 0.1 -66.91200000000002 0.24Q-67.94200000000001 0.38 -69.05200000000002 0.38L-69.05200000000002 0.38Q-70.10200000000002 0.38 -70.94200000000002 0.24Q-71.78200000000001 0.1 -72.36200000000001-0.34Q-72.93200000000002-0.77 -73.25200000000001-1.51Q-73.56200000000001-2.26 -73.56200000000001-3.46L-73.56200000000001-3.46ZM-42.122000000000014-10.9L-44.13200000000001-11.57Q-46.25200000000002-12.29 -47.972000000000016-13.03Q-49.70200000000001-13.78 -50.95200000000001-14.83Q-52.20200000000001-15.89 -52.89200000000002-17.35Q-53.59200000000001-18.82 -53.59200000000001-20.93L-53.59200000000001-20.93Q-53.59200000000001-25.01 -50.45200000000001-27.46Q-47.302000000000014-29.9 -41.64200000000002-29.9L-41.64200000000002-29.9Q-39.57200000000002-29.9 -37.802000000000014-29.62Q-36.02200000000002-29.33 -34.75200000000001-28.73Q-33.48200000000001-28.13 -32.762000000000015-27.19Q-32.042000000000016-26.26 -32.042000000000016-25.01L-32.042000000000016-25.01Q-32.042000000000016-23.76 -32.612000000000016-22.87Q-33.192000000000014-21.98 -34.012000000000015-21.36L-34.012000000000015-21.36Q-35.06200000000001-22.03 -36.84200000000001-22.54Q-38.612000000000016-23.04 -40.73200000000001-23.04L-40.73200000000001-23.04Q-42.89200000000002-23.04 -43.89200000000002-22.44Q-44.902000000000015-21.84 -44.902000000000015-20.93L-44.902000000000015-20.93Q-44.902000000000015-20.21 -44.28200000000001-19.75Q-43.652000000000015-19.3 -42.41200000000001-18.91L-42.41200000000001-18.91L-39.862000000000016-18.1Q-35.35200000000002-16.66 -32.932000000000016-14.42Q-30.502000000000013-12.19 -30.502000000000013-8.35L-30.502000000000013-8.35Q-30.502000000000013-4.27 -33.722000000000016-1.75Q-36.932000000000016 0.77 -43.17200000000001 0.77L-43.17200000000001 0.77Q-45.38200000000001 0.77 -47.28200000000001 0.41Q-49.17200000000001 0.05 -50.59200000000001-0.65Q-52.012000000000015-1.34 -52.802000000000014-2.38Q-53.59200000000001-3.41 -53.59200000000001-4.75L-53.59200000000001-4.75Q-53.59200000000001-6.14 -52.77200000000001-7.13Q-51.96200000000002-8.11 -51.00200000000002-8.64L-51.00200000000002-8.64Q-49.652000000000015-7.58 -47.71200000000002-6.82Q-45.77200000000001-6.05 -43.46200000000002-6.05L-43.46200000000002-6.05Q-41.112000000000016-6.05 -40.152000000000015-6.77Q-39.192000000000014-7.49 -39.192000000000014-8.45L-39.192000000000014-8.45Q-39.192000000000014-9.41 -39.96200000000002-9.91Q-40.73200000000001-10.42 -42.122000000000014-10.9L-42.122000000000014-10.9ZM-0.1640000000000157-25.54L-0.1640000000000157-10.75Q-0.1640000000000157-8.16 -1.0540000000000127-6.02Q-1.9440000000000133-3.89 -3.624000000000013-2.38Q-5.304000000000013-0.86 -7.704000000000015-0.05Q-10.104000000000013 0.77 -13.124000000000015 0.77L-13.124000000000015 0.77Q-16.154000000000014 0.77 -18.554000000000016-0.05Q-20.954000000000015-0.86 -22.634000000000015-2.38Q-24.314000000000014-3.89 -25.204000000000015-6.02Q-26.084000000000014-8.16 -26.084000000000014-10.75L-26.084000000000014-10.75L-26.084000000000014-29.09Q-25.564000000000014-29.18 -24.404000000000014-29.35Q-23.254000000000016-29.52 -22.204000000000015-29.52L-22.204000000000015-29.52Q-21.094000000000015-29.52 -20.254000000000012-29.35Q-19.414000000000016-29.18 -18.844000000000015-28.75Q-18.264000000000014-28.32 -17.974000000000014-27.55Q-17.68400000000001-26.78 -17.68400000000001-25.54L-17.68400000000001-25.54L-17.68400000000001-10.9Q-17.68400000000001-8.59 -16.414000000000016-7.3Q-15.144000000000014-6 -13.124000000000015-6L-13.124000000000015-6Q-11.064000000000014-6 -9.814000000000014-7.3Q-8.564000000000014-8.59 -8.564000000000014-10.9L-8.564000000000014-10.9L-8.564000000000014-29.09Q-8.044000000000015-29.18 -6.8840000000000146-29.35Q-5.734000000000016-29.52 -4.684000000000015-29.52L-4.684000000000015-29.52Q-3.574000000000016-29.52 -2.734000000000016-29.35Q-1.8940000000000126-29.18 -1.3240000000000158-28.75Q-0.744000000000014-28.32 -0.45400000000001484-27.55Q-0.1640000000000157-26.78 -0.1640000000000157-25.54L-0.1640000000000157-25.54ZM 16.197999999999986-10.9L 14.187999999999986-11.57Q 12.067999999999985-12.29  10.347999999999985-13.03Q 8.617999999999984-13.78  7.367999999999985-14.83Q 6.117999999999986-15.89  5.427999999999986-17.35Q 4.7279999999999855-18.82  4.7279999999999855-20.93L 4.7279999999999855-20.93Q 4.7279999999999855-25.01  7.867999999999985-27.46Q 11.017999999999986-29.9  16.677999999999983-29.9L 16.677999999999983-29.9Q 18.747999999999983-29.9  20.517999999999986-29.62Q 22.297999999999984-29.33  23.567999999999987-28.73Q 24.837999999999987-28.13  25.557999999999986-27.19Q 26.277999999999984-26.26  26.277999999999984-25.01L 26.277999999999984-25.01Q 26.277999999999984-23.76  25.707999999999984-22.87Q 25.127999999999986-21.98  24.307999999999986-21.36L 24.307999999999986-21.36Q 23.257999999999985-22.03  21.477999999999987-22.54Q 19.707999999999984-23.04  17.587999999999987-23.04L 17.587999999999987-23.04Q 15.427999999999985-23.04  14.427999999999985-22.44Q 13.417999999999985-21.84  13.417999999999985-20.93L 13.417999999999985-20.93Q 13.417999999999985-20.21  14.037999999999986-19.75Q 14.667999999999985-19.3  15.907999999999985-18.91L 15.907999999999985-18.91L 18.457999999999984-18.1Q 22.967999999999986-16.66  25.387999999999984-14.42Q 27.817999999999987-12.19  27.817999999999987-8.35L 27.817999999999987-8.35Q 27.817999999999987-4.27  24.597999999999985-1.75Q 21.387999999999984 0.77  15.147999999999985 0.77L 15.147999999999985 0.77Q 12.937999999999986 0.77  11.037999999999986 0.41Q 9.147999999999985 0.05  7.7279999999999855-0.65Q 6.307999999999986-1.34  5.517999999999986-2.38Q 4.7279999999999855-3.41  4.7279999999999855-4.75L 4.7279999999999855-4.75Q 4.7279999999999855-6.14  5.547999999999986-7.13Q 6.357999999999985-8.11  7.317999999999985-8.64L 7.317999999999985-8.64Q 8.667999999999985-7.58  10.607999999999986-6.82Q 12.547999999999986-6.05  14.857999999999986-6.05L 14.857999999999986-6.05Q 17.207999999999984-6.05  18.167999999999985-6.77Q 19.127999999999986-7.49  19.127999999999986-8.45L 19.127999999999986-8.45Q 19.127999999999986-9.41  18.357999999999986-9.91Q 17.587999999999987-10.42  16.197999999999986-10.9L 16.197999999999986-10.9ZM 58.39599999999999-25.54L 58.39599999999999-0.19Q 57.865999999999985-0.05  56.73599999999999 0.1Q 55.60599999999999 0.24  54.505999999999986 0.24L 54.505999999999986 0.24Q 53.39599999999999 0.24  52.55599999999998 0.07Q 51.71599999999999-0.1  51.14599999999999-0.53Q 50.56599999999999-0.96  50.27599999999998-1.73Q 49.99599999999998-2.5  49.99599999999998-3.74L 49.99599999999998-3.74L 49.99599999999998-11.23L 40.77599999999998-11.23L 40.77599999999998-0.19Q 40.24599999999999-0.05  39.115999999999985 0.1Q 37.99599999999999 0.24  36.88599999999999 0.24L 36.88599999999999 0.24Q 35.78599999999999 0.24  34.945999999999984 0.07Q 34.10599999999999-0.1  33.52599999999998-0.53Q 32.95599999999999-0.96  32.66599999999998-1.73Q 32.37599999999998-2.5  32.37599999999998-3.74L 32.37599999999998-3.74L 32.37599999999998-29.09Q 32.905999999999985-29.18  34.05599999999998-29.35Q 35.20599999999999-29.52  36.265999999999984-29.52L 36.265999999999984-29.52Q 37.365999999999985-29.52  38.20599999999999-29.35Q 39.045999999999985-29.18  39.62599999999998-28.75Q 40.195999999999984-28.32  40.48599999999999-27.55Q 40.77599999999998-26.78  40.77599999999998-25.54L 40.77599999999998-25.54L 40.77599999999998-17.86L 49.99599999999998-17.86L 49.99599999999998-29.09Q 50.51599999999999-29.18  51.67599999999999-29.35Q 52.825999999999986-29.52  53.87599999999999-29.52L 53.87599999999999-29.52Q 54.98599999999999-29.52  55.825999999999986-29.35Q 56.66599999999998-29.18  57.23599999999999-28.75Q 57.81599999999999-28.32  58.10599999999999-27.55Q 58.39599999999999-26.78  58.39599999999999-25.54L 58.39599999999999-25.54ZM 73.032-25.54L 73.032-0.19Q 72.502-0.05  71.37199999999999 0.1Q 70.252 0.24  69.142 0.24L 69.142 0.24Q 68.04199999999999 0.24  67.202 0.07Q 66.362-0.1  65.782-0.53Q 65.21199999999999-0.96  64.922-1.73Q 64.63199999999999-2.5  64.63199999999999-3.74L 64.63199999999999-3.74L 64.63199999999999-29.09Q 65.16199999999999-29.18  66.312-29.35Q 67.46199999999999-29.52  68.52199999999999-29.52L 68.52199999999999-29.52Q 69.62199999999999-29.52  70.46199999999999-29.35Q 71.30199999999999-29.18  71.88199999999999-28.75Q 72.452-28.32  72.74199999999999-27.55Q 73.032-26.78  73.032-25.54L 73.032-25.54Z"></path><path text="by OHGEEZ DAO" fill="#f5f5f5" space="preserve" text-anchor="middle" offset="0.5" font-scale="contain" font-size="48" font-family="Exo 2" transform="matrix(0.32266950607299805, 0, 0, 0.32266950607299805, 256.1087341308594, 355.89306640625)" font-weight="400" font-style="normal" data-fl-textpath="" data-uid="o_f4b7na6h1_6" d="M-167.086-33.6L-163.00600000000003-33.6L-163.00600000000003-24.86Q-163.00600000000003-21.5 -163.436-19.68L-163.436-19.68Q-159.26600000000002-23.95 -154.41600000000003-23.95L-154.41600000000003-23.95Q-150.04600000000002-23.95 -148.00600000000003-21.1Q-145.966-18.24 -145.966-11.76L-145.966-11.76Q-145.966-5.42 -148.276-2.42Q-150.57600000000002 0.58 -156.336 0.58L-156.336 0.58Q-162.336 0.58 -167.086-1.1L-167.086-1.1L-167.086-33.6ZM-163.00600000000003-16.94L-163.00600000000003-16.94L-163.00600000000003-3.7Q-159.79600000000002-2.78 -156.436-2.88L-156.436-2.88Q-153.026-2.93 -151.63600000000002-4.87Q-150.23600000000002-6.82 -150.19600000000003-11.76L-150.19600000000003-11.76Q-150.23600000000002-16.7 -151.39600000000002-18.55Q-152.54600000000002-20.4 -155.85600000000002-20.4L-155.85600000000002-20.4Q-157.53600000000003-20.4 -159.096-19.58Q-160.656-18.77 -163.00600000000003-16.94ZM-123.55600000000001-23.38L-119.13600000000001-23.38L-128.496 1.3Q-131.566 9.55 -138.716 9.89L-138.716 9.89L-139.10600000000002 7.2Q-136.366 6.34 -134.806 4.82Q-133.246 3.31 -132.286 1.01L-132.286 1.01L-131.906 0L-132.816 0Q-133.966 0 -134.25600000000003-1.06L-134.25600000000003-1.06L-142.756-23.38L-138.38600000000002-23.38L-132.19600000000003-5.95Q-131.51600000000002-3.98 -131.32600000000002-3.12L-131.32600000000002-3.12L-130.656-3.12Q-130.276-4.08 -129.64600000000002-5.95L-129.64600000000002-5.95L-123.55600000000001-23.38ZM-102.74600000000002-29.98Q-99.83600000000003-33.74 -92.54600000000002-33.74Q-85.24600000000002-33.74 -82.36600000000001-29.98Q-79.48600000000002-26.21 -79.48600000000002-16.56Q-79.48600000000002-6.91 -82.36600000000001-3.14Q-85.24600000000002 0.62 -92.54600000000002 0.62Q-99.83600000000003 0.62 -102.74600000000002-3.14Q-105.64600000000002-6.91 -105.64600000000002-16.56Q-105.64600000000002-26.21 -102.74600000000002-29.98ZM-85.77600000000002-27.05Q-87.64600000000002-29.95 -92.54600000000002-29.95Q-97.43600000000002-29.95 -99.31600000000002-27.05Q-101.18600000000002-24.14 -101.18600000000002-16.56Q-101.18600000000002-8.98 -99.31600000000002-6.07Q-97.43600000000002-3.17 -92.54600000000002-3.17Q-87.64600000000002-3.17 -85.77600000000002-6.07Q-83.90600000000002-8.98 -83.90600000000002-16.56Q-83.90600000000002-24.14 -85.77600000000002-27.05ZM-52.85200000000003-33.12L-48.62200000000003-33.12L-48.62200000000003 0L-52.85200000000003 0L-52.85200000000003-15.89L-68.11200000000002-15.89L-68.11200000000002 0L-72.33200000000002 0L-72.33200000000002-33.12L-68.11200000000002-33.12L-68.11200000000002-19.54L-52.85200000000003-19.54L-52.85200000000003-33.12ZM-17.56800000000003 0L-20.63800000000003 0L-21.11800000000003-3.5Q-25.348000000000027 0.62 -31.00800000000003 0.62L-31.00800000000003 0.62Q-36.52800000000003 0.62 -38.998000000000026-3.5Q-41.46800000000003-7.63 -41.46800000000003-16.66L-41.46800000000003-16.66Q-41.46800000000003-26.4 -38.44800000000003-30.07Q-35.428000000000026-33.74 -27.648000000000028-33.74L-27.648000000000028-33.74Q-22.418000000000028-33.74 -18.42800000000003-32.74L-18.42800000000003-32.74L-18.86800000000003-29.57Q-22.898000000000028-29.95 -27.40800000000003-29.95L-27.40800000000003-29.95Q-31.19800000000003-29.95 -33.148000000000025-28.97Q-35.08800000000003-27.98 -36.04800000000003-25.06Q-37.00800000000003-22.13 -37.00800000000003-16.37L-37.00800000000003-16.37Q-37.00800000000003-9.02 -35.428000000000026-6.05Q-33.83800000000003-3.07 -29.85800000000003-3.07L-29.85800000000003-3.07Q-26.10800000000003-3.07 -21.69800000000003-6.29L-21.69800000000003-6.29L-21.69800000000003-19.15L-17.56800000000003-19.15L-17.56800000000003 0ZM-3.3140000000000267-3.5L 9.985999999999972-3.5L 10.175999999999974-0.24Q 5.755999999999972 0.05 -4.034000000000027 0.05L-4.034000000000027 0.05Q-6.964000000000027 0.05 -8.664000000000026-1.51Q-10.364000000000027-3.07 -10.414000000000026-5.71L-10.414000000000026-5.71L-10.414000000000026-27.41Q-10.364000000000027-30.05 -8.664000000000026-31.61Q-6.964000000000027-33.17 -4.034000000000027-33.17L-4.034000000000027-33.17Q 5.755999999999972-33.17  10.175999999999974-32.88L 10.175999999999974-32.88L 9.985999999999972-29.57L-3.3140000000000267-29.57Q-6.1940000000000275-29.57 -6.1940000000000275-26.4L-6.1940000000000275-26.4L-6.1940000000000275-19.2L 8.115999999999975-19.2L 8.115999999999975-15.79L-6.1940000000000275-15.79L-6.1940000000000275-6.72Q-6.1940000000000275-3.5 -3.3140000000000267-3.5L-3.3140000000000267-3.5ZM 23.56599999999997-3.5L 36.86599999999997-3.5L 37.05599999999997-0.24Q 32.63599999999997 0.05  22.845999999999968 0.05L 22.845999999999968 0.05Q 19.91599999999997 0.05  18.21599999999997-1.51Q 16.51599999999997-3.07  16.46599999999997-5.71L 16.46599999999997-5.71L 16.46599999999997-27.41Q 16.51599999999997-30.05  18.21599999999997-31.61Q 19.91599999999997-33.17  22.845999999999968-33.17L 22.845999999999968-33.17Q 32.63599999999997-33.17  37.05599999999997-32.88L 37.05599999999997-32.88L 36.86599999999997-29.57L 23.56599999999997-29.57Q 20.68599999999997-29.57  20.68599999999997-26.4L 20.68599999999997-26.4L 20.68599999999997-19.2L 34.995999999999974-19.2L 34.995999999999974-15.79L 20.68599999999997-15.79L 20.68599999999997-6.72Q 20.68599999999997-3.5  23.56599999999997-3.5L 23.56599999999997-3.5ZM 46.46599999999997-3.6L 64.36599999999997-3.6L 64.36599999999997 0L 41.75599999999997 0L 41.75599999999997-3.6L 59.42599999999997-29.52L 42.04599999999998-29.52L 42.04599999999998-33.12L 64.03599999999997-33.12L 64.03599999999997-29.52L 46.46599999999997-3.6ZM 81.50799999999998 0L 81.50799999999998 0L 81.50799999999998-33.12Q 87.74799999999998-33.55  93.30799999999998-33.55L 93.30799999999998-33.55Q 100.46799999999998-33.55  103.34799999999997-29.83Q 106.22799999999998-26.11  106.22799999999998-16.56Q 106.22799999999998-7.01  103.34799999999997-3.29Q 100.46799999999998 0.43  93.30799999999998 0.43L 93.30799999999998 0.43Q 87.74799999999998 0.43  81.50799999999998 0ZM 85.72799999999998-29.81L 85.72799999999998-29.81L 85.72799999999998-3.36Q 90.04799999999997-3.26  93.30799999999998-3.26L 93.30799999999998-3.26Q 98.06799999999997-3.26  99.93799999999997-6.17Q 101.80799999999998-9.07  101.80799999999998-16.56Q 101.80799999999998-24.05  99.93799999999997-26.98Q 98.06799999999997-29.9  93.30799999999998-29.9L 93.30799999999998-29.9Q 90.23799999999997-29.9  85.72799999999998-29.81ZM 134.01799999999997 0L 130.748-10.37L 117.11799999999998-10.37L 113.85799999999998 0L 109.48799999999999 0L 120.14799999999998-31.97Q 120.42799999999998-33.12  121.72799999999998-33.12L 121.72799999999998-33.12L 126.14799999999998-33.12Q 127.43799999999999-33.12  127.72799999999998-31.97L 127.72799999999998-31.97L 138.38799999999998 0L 134.01799999999997 0ZM 118.26799999999999-14.02L 129.59799999999998-14.02L 125.42799999999998-27.17Q 124.98799999999999-28.42  124.60799999999998-29.86L 124.60799999999998-29.86L 123.26799999999999-29.86L 122.44799999999998-27.17L 118.26799999999999-14.02ZM 144.50199999999998-29.98Q 147.41199999999998-33.74  154.70199999999997-33.74Q 162.00199999999995-33.74  164.88199999999998-29.98Q 167.76199999999997-26.21  167.76199999999997-16.56Q 167.76199999999997-6.91  164.88199999999998-3.14Q 162.00199999999995 0.62  154.70199999999997 0.62Q 147.41199999999998 0.62  144.50199999999998-3.14Q 141.60199999999998-6.91  141.60199999999998-16.56Q 141.60199999999998-26.21  144.50199999999998-29.98ZM 161.47199999999998-27.05Q 159.60199999999998-29.95  154.70199999999997-29.95Q 149.81199999999995-29.95  147.93199999999996-27.05Q 146.06199999999995-24.14  146.06199999999995-16.56Q 146.06199999999995-8.98  147.93199999999996-6.07Q 149.81199999999995-3.17  154.70199999999997-3.17Q 159.60199999999998-3.17  161.47199999999998-6.07Q 163.34199999999998-8.98  163.34199999999998-16.56Q 163.34199999999998-24.14  161.47199999999998-27.05Z"></path><g transform="matrix(0.24999959766864777, 0, 0, 0.24999959766864777, 202.19517517089844, 154.0589141845703)" fill="#ffffff" data-uid="o_f4b7na6h1_7"><path d="M142.976 280.946c-4.142 0-7.5 3.358-7.5 7.5v12.703c0 4.142 3.358 7.5 7.5 7.5s7.5-3.358 7.5-7.5v-12.703
			C150.477 284.304 147.118 280.946 142.976 280.946z" transform="matrix(1, 0, 0, 1, 0, 0)" fill="#ffffff"></path><path d="M283.353 280.946c-4.142 0-7.5 3.358-7.5 7.5v12.703c0 4.142 3.358 7.5 7.5 7.5s7.5-3.358 7.5-7.5v-12.703
			C290.853 284.304 287.495 280.946 283.353 280.946z" transform="matrix(1, 0, 0, 1, 0, 0)" fill="#ffffff"></path><path d="M239.386 295.474c-3.118-2.726-7.857-2.408-10.583 0.71c-3.807 4.355-9.507 6.853-15.638 6.853
			s-11.831-2.498-15.638-6.853c-2.726-3.119-7.464-3.437-10.583-0.711c-3.119 2.727-3.437 7.464-0.71 10.583
			c6.656 7.614 16.472 11.981 26.932 11.981s20.275-4.367 26.932-11.98C242.822 302.938 242.504 298.2 239.386 295.474z" transform="matrix(1, 0, 0, 1, 0, 0)" fill="#ffffff" data-uid="o_f4b7na6h1_10"></path><path d="M510.614 223.333c-7.952-17.388-25.261-31.008-46.301-36.433c-15.294-3.943-30.731-3.167-43.859 1.766
			c-8.478-23.013-25.89-41.668-51.886-55.532c-0.017-0.009-0.032-0.022-0.05-0.032c-22.982-12.261-52.846-20.718-88.764-25.137
			c-20.1-2.475-42.5-3.73-66.589-3.73c-24.082 0-46.483 1.255-66.589 3.73c-35.918 4.418-65.782 12.875-88.764 25.138
			c-0.019 0.01-0.037 0.024-0.056 0.035C10.022 158.597 0 195.813 0 222.554c0 5.709 2.125 10.674 6.145 14.358
			c3.136 2.874 7.351 4.956 12.995 6.306c-6.406 13.408-9.656 28.567-9.656 45.227c0 34.539 13.71 62.111 40.751 81.953
			c3.339 2.45 8.033 1.73 10.484-1.61c2.45-3.34 1.729-8.033-1.61-10.484c-23.3-17.095-34.626-39.947-34.626-69.859
			c0-16.352 3.555-30.919 10.575-43.367c5.736 0.163 12.399-0.036 20.337-0.596c27.287-1.927 54.376-6.19 81.544-9.285
			c20.993-2.395 48.63-5.143 76.224-5.143c25.458 0 50.951 2.26 76.228 5.144c24.985 2.851 49.889 6.592 74.949 8.765
			c7.052 0.614 14.137 1.106 21.218 1.158c0.074 2.528 0.279 5.078 0.614 7.639c0.005 0.04 0.011 0.08 0.017 0.12
			c1.809 13.488 7.19 26.836 15.587 37.582c0.017 0.021 0.032 0.044 0.049 0.066c-0.67 37.352-19.499 63.839-57.505 80.932
			c-31.432 14.136-75.559 21.305-131.155 21.305c-53.934 0-97.117-6.756-128.35-20.081c-3.811-1.625-8.216 0.145-9.842 3.956
			c-1.625 3.81 0.146 8.216 3.955 9.841c33.104 14.123 78.268 21.284 134.236 21.284c57.731 0 103.928-7.612 137.308-22.625
			c38.735-17.42 60.667-44.689 65.393-81.183c3.599 2.534 7.412 4.669 11.408 6.297c6.527 2.659 14.571 0.356 18.638-5.651
			c9.508-14.042 12.656-32.831 8.847-51.41c18.721 3.023 37.363-0.912 50.992-11.001
			C511.59 237.871 513.635 229.939 510.614 223.333z M16.28 225.854c-0.769-0.704-1.28-1.535-1.28-3.3
			c0-26.853 11.148-48.854 33.198-65.621c-0.008 0.034-0.015 0.07-0.022 0.105c-5.282 23.858-4.17 49.094 2.876 72.467
			c0.022 0.074 0.042 0.147 0.065 0.221C32.007 230.841 20.306 229.544 16.28 225.854z M133.768 125.026
			c-9.012 18.974-14.24 39.908-14.083 60.967c0.088 11.815 1.954 23.599 5.692 34.814c0.068 0.205 0.127 0.41 0.197 0.615
			c-16.635 1.993-33.243 4.259-49.897 6.089c-3.069 0.342-6.139 0.667-9.212 0.968c-0.04-0.121-0.079-0.241-0.119-0.362
			c-6.879-21.075-8.206-43.835-3.927-65.582c1.623-8.248 3.658-14.311 4.837-17.441c17.839-9.092 40.168-15.852 66.556-20.159
			C133.797 124.964 133.783 124.996 133.768 125.026z M203.655 215.159c-17.212 0.374-34.408 1.417-51.521 3.319
			c-3.752 0.374-7.501 0.769-11.249 1.182c-0.035-0.094-0.068-0.188-0.103-0.282c-9.687-26.047-6.635-55.078 3.465-80.517
			c2.237-5.633 4.798-11.164 7.789-16.438c16.434-1.874 34.428-2.929 53.627-3.146v95.84h0.001
			C204.993 215.128 204.325 215.145 203.655 215.159z M289.647 204.861c-0.971 4.918-2.337 9.755-4.077 14.456
			c-0.042 0.115-0.082 0.229-0.125 0.344c-18.97-2.091-38.007-3.746-57.087-4.352c-2.563-0.082-5.128-0.15-7.693-0.192v-95.84
			c19.2 0.217 37.193 1.272 53.628 3.146C279.942 132.41 297.141 166.903 289.647 204.861z M359.992 228.085
			c-0.043 0.131-0.086 0.262-0.129 0.394c-1.236-0.121-4.101-0.414-4.281-0.433c-16.328-1.724-32.605-3.914-48.901-5.907
			c-1.967-0.24-3.943-0.48-5.933-0.718c0.013-0.038 0.023-0.076 0.036-0.114c13.423-39.698 0.828-77.047-8.267-96.373
			c26.389 4.308 48.717 11.068 66.562 20.171c4.723 12.202 6.783 25.381 7.222 38.415c0.003 0.087 0.007 0.173 0.009 0.26
			C366.77 198.749 364.65 213.851 359.992 228.085z M399.971 201.869c-6.816 7.755-11.312 17.536-13.29 28.261
			c-0.067 0-7.627-0.147-11.332-0.388c-0.046-0.003-0.093-0.006-0.139-0.009c0.023-0.076 0.043-0.151 0.066-0.227
			c2.911-9.642 4.816-19.586 5.659-29.623c1.201-14.296 0.277-28.808-2.78-42.828c-0.007-0.031-0.013-0.064-0.02-0.095
			c14.117 10.772 23.803 23.757 28.919 38.79C404.822 197.342 400.231 201.574 399.971 201.869z M496.826 230.135
			c-11.769 8.712-28.77 11.342-45.475 7.035c-1.665-0.43-3.364-0.943-5.048-1.527c-5.955-2.065-11.743 3.99-9.434 9.839
			c0.654 1.657 1.239 3.333 1.739 4.98c5.006 16.509 3.093 33.605-5.117 45.73c-0.118 0.174-0.363 0.249-0.558 0.169
			c-26.333-10.688-38.689-45.81-29.236-71.627c0.035-0.096 0.073-0.191 0.109-0.287c8.488-22.744 35.32-28.552 56.762-23.024
			c16.705 4.307 30.314 14.829 36.404 28.147C497.06 229.762 496.996 230.01 496.826 230.135z" transform="matrix(1, 0, 0, 1, 0, 0)" fill="#ffffff" data-uid="o_f4b7na6h1_11"></path></g><g transform="matrix(0.1430533528327942, 0, 0, 0.1430533528327942, 163.57357788085938, 144.81552124023438)" fill="#ffffff" data-uid="o_f4b7na6h1_12"><path d="m205.1 510.792c6.768 2.895 14.658.457 18.596-5.801l180-286c2.909-4.622 3.076-10.46.436-15.241s-7.669-7.749-13.131-7.749h-120.16l44.705-177.333c1.803-7.153-1.862-14.555-8.644-17.457-6.783-2.902-14.667-.442-18.596 5.801l-180 286c-2.909 4.622-3.076 10.46-.436 15.241s7.669 7.749 13.131 7.749h120.16l-44.705 177.333c-1.803 7.153 1.862 14.555 8.644 17.457zm-56.934-224.79 115.187-183.019-26.307 104.353c-1.13 4.484-.129 9.238 2.713 12.886 2.842 3.647 7.208 5.78 11.832 5.78h112.247l-115.188 183.019 26.307-104.353c1.13-4.484.129-9.238-2.713-12.886-2.842-3.647-7.208-5.78-11.832-5.78z" transform="matrix(0.999994158744812, 0, 0, 0.999994158744812, 0, 0)" fill="#ffffff" data-uid="o_f4b7na6h1_13"></path></g></svg>